<svg width="20" height="20" viewBox="0 0 20 20" fill="none" xmlns="http://www.w3.org/2000/svg">
<path d="M10 0C15.4292 0 19.8479 4.3255 19.9962 9.72004L20 10C20 15.4292 15.6745 19.8479 10.28 19.9962L10 20C4.47715 20 0 15.5241 0 10C0 4.57076 4.3255 0.152068 9.72004 0.0038418L10 0ZM7.1129 5.7097C6.72061 5.40468 6.15338 5.43241 5.79289 5.79289L5.7097 5.8871C5.40468 6.27939 5.43241 6.84662 5.79289 7.20711L8.62 10.035L5.79289 12.864L5.7097 12.9582C5.40468 13.3505 5.43241 13.9177 5.79289 14.2782L5.8871 14.3614C6.27939 14.6664 6.84662 14.6387 7.20711 14.2782L10.035 11.45L12.864 14.2782L12.9582 14.3614C13.3505 14.6664 13.9177 14.6387 14.2782 14.2782L14.3614 14.184C14.6664 13.7917 14.6387 13.2244 14.2782 12.864L11.45 10.035L14.2782 7.20711L14.3614 7.1129C14.6664 6.72061 14.6387 6.15338 14.2782 5.79289L14.184 5.7097C13.7917 5.40468 13.2244 5.43241 12.864 5.79289L10.035 8.62L7.20711 5.79289L7.1129 5.7097Z" fill="#DB1237"/>
</svg>
